<?xml version="1.0" encoding="UTF-8"?>
<svg version="1.1" xmlns="http://www.w3.org/2000/svg" width="200" height="200">
<path d="M0 0 C14.67282006 -3.08531395 29.36066341 -5.0600604 44.3125 -6.1875 C45.98478479 -6.31439775 45.98478479 -6.31439775 47.69085312 -6.4438591 C77.04394862 -8.40408889 100.29011743 -3.55517452 122.67121887 15.62574768 C134.73521917 26.21729278 145.90779228 37.67024752 156.8125 49.4375 C157.36105038 50.02793358 157.90960076 50.61836717 158.47477388 51.22669268 C200 95.97066147 200 95.97066147 200 100 C151.49 100.495 151.49 100.495 102 101 C109.074375 108.06277344 116.14875 115.12554687 123.4375 122.40234375 C127.90392043 126.86365787 132.37021468 131.32509713 136.8359375 135.78710938 C143.93245772 142.87768591 151.02950492 149.96772955 158.12988281 157.05444336 C163.30004293 162.21465865 168.46846258 167.37660964 173.63477039 172.5406819 C176.37216326 175.27676731 179.11043956 178.0119556 181.85079956 180.7450695 C184.42690404 183.31441693 187.00068554 185.88606793 189.57265854 188.45955086 C190.97369006 189.86017348 192.37721447 191.25830107 193.78079224 192.65637207 C194.60537933 193.48233383 195.42996643 194.30829559 196.27954102 195.1592865 C197.36356956 196.24193236 197.36356956 196.24193236 198.46949768 197.34644985 C200 199 200 199 200 200 C185.32717994 203.08531395 170.63933659 205.0600604 155.6875 206.1875 C154.57264347 206.2720985 153.45778694 206.35669701 152.30914688 206.4438591 C122.95605138 208.40408889 99.70988257 203.55517452 77.32878113 184.37425232 C65.26478083 173.78270722 54.09220772 162.32975248 43.1875 150.5625 C42.63894962 149.97206642 42.09039924 149.38163283 41.52522612 148.77330732 C0 104.02933853 0 104.02933853 0 100 C32.34 99.67 64.68 99.34 98 99 C90.925625 91.93722656 83.85125 84.87445313 76.5625 77.59765625 C72.09607957 73.13634213 67.62978532 68.67490287 63.1640625 64.21289062 C56.06754228 57.12231409 48.97049508 50.03227045 41.87011719 42.94555664 C36.69995707 37.78534135 31.53153742 32.62339036 26.36522961 27.4593181 C23.62783674 24.72323269 20.88956044 21.9880444 18.14920044 19.2549305 C15.57309596 16.68558307 12.99931446 14.11393207 10.42734146 11.54044914 C9.02630994 10.13982652 7.62278553 8.74169893 6.21920776 7.34362793 C5.39462067 6.51766617 4.57003357 5.69170441 3.72045898 4.8407135 C2.99777328 4.11894959 2.27508759 3.39718569 1.53050232 2.65355015 C0 1 0 1 0 0 Z " fill="#FFFFFF" transform="translate(0,0)"/>
</svg>
